<mxfile host="app.diagrams.net" modified="2022-04-11T10:01:48.699Z" agent="5.0 (Windows NT 10.0; Win64; x64) AppleWebKit/537.36 (KHTML, like Gecko) Chrome/87.0.4280.88 Safari/537.36" etag="PAaA1lkt9G24DTx4MJnR" version="17.4.0" type="github">
  <diagram id="C5RBs43oDa-KdzZeNtuy" name="Page-1">
    <mxGraphModel dx="1292" dy="697" grid="1" gridSize="10" guides="1" tooltips="1" connect="1" arrows="1" fold="1" page="1" pageScale="1" pageWidth="827" pageHeight="1169" math="0" shadow="0">
      <root>
        <mxCell id="WIyWlLk6GJQsqaUBKTNV-0" />
        <mxCell id="WIyWlLk6GJQsqaUBKTNV-1" parent="WIyWlLk6GJQsqaUBKTNV-0" />
        <mxCell id="zieco2P78c5FTr5mUxi5-3" value="" style="group" vertex="1" connectable="0" parent="WIyWlLk6GJQsqaUBKTNV-1">
          <mxGeometry x="260" y="10" width="360" height="210" as="geometry" />
        </mxCell>
        <mxCell id="zieco2P78c5FTr5mUxi5-6" value="" style="group" vertex="1" connectable="0" parent="zieco2P78c5FTr5mUxi5-3">
          <mxGeometry width="360" height="210" as="geometry" />
        </mxCell>
        <mxCell id="zieco2P78c5FTr5mUxi5-1" value="" style="rounded=0;whiteSpace=wrap;html=1;" vertex="1" parent="zieco2P78c5FTr5mUxi5-6">
          <mxGeometry y="46.199999999999996" width="360" height="138.6" as="geometry" />
        </mxCell>
        <mxCell id="zieco2P78c5FTr5mUxi5-2" value="内网穿透" style="text;html=1;align=center;verticalAlign=middle;resizable=0;points=[];autosize=1;strokeColor=none;fillColor=none;" vertex="1" parent="zieco2P78c5FTr5mUxi5-6">
          <mxGeometry width="60" height="20" as="geometry" />
        </mxCell>
        <mxCell id="zieco2P78c5FTr5mUxi5-5" value="eth0" style="rounded=0;whiteSpace=wrap;html=1;" vertex="1" parent="zieco2P78c5FTr5mUxi5-6">
          <mxGeometry x="53.33333333333333" y="184.79999999999998" width="40" height="25.2" as="geometry" />
        </mxCell>
        <mxCell id="zieco2P78c5FTr5mUxi5-21" value="1. 80是应用层的frps监听，那么就是转发给7000端口号就好了" style="text;html=1;align=center;verticalAlign=middle;resizable=0;points=[];autosize=1;strokeColor=none;fillColor=none;" vertex="1" parent="zieco2P78c5FTr5mUxi5-6">
          <mxGeometry x="-210" y="80" width="340" height="20" as="geometry" />
        </mxCell>
        <mxCell id="zieco2P78c5FTr5mUxi5-4" value="" style="rounded=0;whiteSpace=wrap;html=1;" vertex="1" parent="WIyWlLk6GJQsqaUBKTNV-1">
          <mxGeometry x="520" y="320" width="240" height="90" as="geometry" />
        </mxCell>
        <mxCell id="zieco2P78c5FTr5mUxi5-17" style="edgeStyle=orthogonalEdgeStyle;rounded=0;orthogonalLoop=1;jettySize=auto;html=1;exitX=0.5;exitY=1;exitDx=0;exitDy=0;entryX=1;entryY=0.5;entryDx=0;entryDy=0;" edge="1" parent="WIyWlLk6GJQsqaUBKTNV-1" source="zieco2P78c5FTr5mUxi5-8" target="zieco2P78c5FTr5mUxi5-5">
          <mxGeometry relative="1" as="geometry" />
        </mxCell>
        <mxCell id="zieco2P78c5FTr5mUxi5-8" value="eth0" style="rounded=0;whiteSpace=wrap;html=1;" vertex="1" parent="WIyWlLk6GJQsqaUBKTNV-1">
          <mxGeometry x="560.0033333333333" y="409.99999999999994" width="40" height="25.2" as="geometry" />
        </mxCell>
        <mxCell id="zieco2P78c5FTr5mUxi5-11" value="" style="rounded=0;whiteSpace=wrap;html=1;" vertex="1" parent="WIyWlLk6GJQsqaUBKTNV-1">
          <mxGeometry x="80" y="330" width="240" height="90" as="geometry" />
        </mxCell>
        <mxCell id="zieco2P78c5FTr5mUxi5-13" style="edgeStyle=orthogonalEdgeStyle;rounded=0;orthogonalLoop=1;jettySize=auto;html=1;exitX=0.5;exitY=1;exitDx=0;exitDy=0;entryX=0;entryY=0.5;entryDx=0;entryDy=0;" edge="1" parent="WIyWlLk6GJQsqaUBKTNV-1" source="zieco2P78c5FTr5mUxi5-12" target="zieco2P78c5FTr5mUxi5-5">
          <mxGeometry relative="1" as="geometry" />
        </mxCell>
        <mxCell id="zieco2P78c5FTr5mUxi5-12" value="eth0" style="rounded=0;whiteSpace=wrap;html=1;" vertex="1" parent="WIyWlLk6GJQsqaUBKTNV-1">
          <mxGeometry x="120.00333333333333" y="419.99999999999994" width="40" height="25.2" as="geometry" />
        </mxCell>
        <mxCell id="zieco2P78c5FTr5mUxi5-14" value="" style="rounded=0;whiteSpace=wrap;html=1;" vertex="1" parent="WIyWlLk6GJQsqaUBKTNV-1">
          <mxGeometry x="110" y="345" width="120" height="60" as="geometry" />
        </mxCell>
        <mxCell id="zieco2P78c5FTr5mUxi5-15" value="18.162.117.13:10442" style="text;html=1;align=center;verticalAlign=middle;resizable=0;points=[];autosize=1;strokeColor=none;fillColor=none;" vertex="1" parent="WIyWlLk6GJQsqaUBKTNV-1">
          <mxGeometry x="590" y="435.2" width="130" height="20" as="geometry" />
        </mxCell>
        <mxCell id="zieco2P78c5FTr5mUxi5-16" value="10.12.0.4:7000" style="text;html=1;align=center;verticalAlign=middle;resizable=0;points=[];autosize=1;strokeColor=none;fillColor=none;" vertex="1" parent="WIyWlLk6GJQsqaUBKTNV-1">
          <mxGeometry x="364" y="200" width="100" height="20" as="geometry" />
        </mxCell>
        <mxCell id="zieco2P78c5FTr5mUxi5-19" value="18.162.103.100:11226" style="text;html=1;align=center;verticalAlign=middle;resizable=0;points=[];autosize=1;strokeColor=none;fillColor=none;" vertex="1" parent="WIyWlLk6GJQsqaUBKTNV-1">
          <mxGeometry x="10" y="455.2" width="130" height="20" as="geometry" />
        </mxCell>
        <mxCell id="zieco2P78c5FTr5mUxi5-20" value="10.12.0.4:80" style="text;html=1;align=center;verticalAlign=middle;resizable=0;points=[];autosize=1;strokeColor=none;fillColor=none;" vertex="1" parent="WIyWlLk6GJQsqaUBKTNV-1">
          <mxGeometry x="230" y="210" width="80" height="20" as="geometry" />
        </mxCell>
      </root>
    </mxGraphModel>
  </diagram>
</mxfile>
